<svg width="30" height="45" viewBox="0 0 30 45" fill="none" xmlns="http://www.w3.org/2000/svg">
<path d="M17.4903 1.94153C16.8136 -0.587956 13.2767 -0.70573 12.5097 1.94153C8.52358 15.8071 0 19.575 0 29.3476C0 37.9995 6.70909 45 15 45C23.2909 45 30 37.9995 30 29.3476C30 19.5258 21.4952 15.8704 17.4903 1.94153V1.94153ZM15 39.375C9.73722 39.375 5.45455 34.9585 5.45455 29.5313C5.45455 28.7543 6.06477 28.125 6.81818 28.125C7.57159 28.125 8.18182 28.7543 8.18182 29.5313C8.18182 33.4081 11.2406 36.5625 15 36.5625C15.7534 36.5625 16.3636 37.1918 16.3636 37.9688C16.3636 38.7457 15.7534 39.375 15 39.375Z" fill="#375DD7"/>
</svg>
